{"asset":{"version":"2.0","generator":"Blockbench 4.12.1 glTF exporter"},"scenes":[{"nodes":[54],"name":"blockbench_export"}],"scene":0,"nodes":[{"name":"corpo2"},{"translation":[0.75,2.5,0.23125000000000004],"name":"BT-2","children":[0]},{"name":"corpo2"},{"translation":[0.75,2.5,0.23125000000000004],"name":"BT-2","children":[2]},{"name":"corpo2"},{"translation":[0.75,2.5,0.23125000000000004],"name":"BT-2","children":[4]},{"name":"corpo2"},{"translation":[0.75,2.5,0.23125000000000004],"name":"BT-2","children":[6]},{"rotation":[0.08715574274765817,0,0,0.9961946980917455],"translation":[-0.75,0.3125,0.1875],"name":"corpo","mesh":0},{"rotation":[0.08715574274765817,0,0,0.9961946980917455],"translation":[0,0,0.9375000000000004],"name":"normal","mesh":1},{"name":"normal","children":[9]},{"rotation":[0.08715574274765817,0,0,0.9961946980917455],"translation":[0,0,0.9375000000000004],"name":"feliz","mesh":2},{"name":"feliz","children":[11]},{"rotation":[0.08715574274765817,0,0,0.9961946980917455],"translation":[0,0,0.9375000000000004],"name":"raiva bem","mesh":3},{"name":"raiva bem","children":[13]},{"rotation":[0.08715574274765817,0,0,0.9961946980917455],"translation":[0,0,0.9375000000000004],"name":"raiva mal","mesh":4},{"name":"raiva mal","children":[15]},{"rotation":[0.08715574274765817,0,0,0.9961946980917455],"translation":[0,0,0.9375000000000004],"name":"carregando","mesh":5},{"name":"carregando","children":[17]},{"rotation":[0.08715574274765817,0,0,0.9961946980917455],"translation":[0,0,0.9375000000000004],"name":"hackeamento","mesh":6},{"name":"hackeamento","children":[19]},{"name":"bone6"},{"name":"bone5","children":[21]},{"name":"bone4","children":[22]},{"name":"bone3","children":[23]},{"rotation":[0.08715574274765817,0,0,0.9961946980917455],"translation":[0,0,0.9375000000000004],"name":"perigo","mesh":7},{"name":"perigo","children":[24,25]},{"translation":[-0.75,0.3125,0.18125000000000002],"name":"reacoes","children":[10,12,14,16,18,20,26]},{"rotation":[0.21643961393810288,0,0,0.9762960071199334],"translation":[0,-0.359375,-0.1343749999999999],"name":"G1","mesh":8},{"rotation":[-0.16806930625621247,-0.16806930625621264,-0.6868425644167337,0.6868425644167343],"translation":[-0.25,-0.3375,0.17812499999999998],"name":"G2","mesh":9},{"rotation":[0,-0.9320078692827984,0,0.3624380382837017],"name":"p3"},{"rotation":[0,-0.9320078692827984,0,0.3624380382837017],"translation":[4.683753385137379e-17,3.4375,-0.1625],"name":"p4"},{"translation":[-0.09374999999999999,-0.1875,0],"name":"11","mesh":10},{"rotation":[0,0,-0.13052619222005157,0.9914448613738104],"translation":[-0.11874999999999991,-0.22499999999999992,1.734723475976807e-17],"name":"21","mesh":11},{"translation":[0.125,-0.1875,0],"name":"s1","children":[33]},{"translation":[0.09374999999999994,-0.1437499999999996,-3.469446951953614e-18],"name":"p1","children":[30,31,32,34]},{"translation":[0.10937500000000004,-0.1875,-3.469446951953614e-18],"name":"12","mesh":12},{"rotation":[0,0,0.13052619222005157,0.9914448613738104],"translation":[0.1499999999999999,-0.22499999999999992,1.734723475976807e-17],"name":"22","mesh":13},{"translation":[-0.14062499999999994,-0.1875,-3.469446951953614e-18],"name":"s2","children":[37]},{"translation":[-0.109375,-0.1437499999999996,0],"name":"p2","children":[36,38]},{"rotation":[0,0.7071067811865475,0,0.7071067811865476],"name":"p4"},{"translation":[-0.125,-0.16249999999999998,2.7755575615628914e-17],"name":"13","mesh":14},{"rotation":[0,0,-0.13052619222005157,0.9914448613738104],"translation":[-0.1343749999999999,-0.22499999999999992,1.3877787807814457e-17],"name":"23","mesh":15},{"translation":[0.10937499999999999,-0.16249999999999998,2.7755575615628914e-17],"name":"s3","children":[42]},{"rotation":[0,0.7071067811865475,0,0.7071067811865476],"translation":[-4.683753385137379e-17,-0.16874999999999962,-0.125],"name":"p3","children":[40,41,43]},{"translation":[-0.125,-0.171875,-2.7755575615628914e-17],"name":"14","mesh":16},{"rotation":[0,0,-0.13052619222005157,0.9914448613738104],"translation":[-0.1499999999999999,-0.22499999999999992,0],"name":"24","mesh":17},{"translation":[0.12499999999999999,-0.171875,-2.7755575615628914e-17],"name":"s4","children":[46]},{"rotation":[0,-0.7071067811865475,0,0.7071067811865476],"translation":[-4.683753385137379e-17,-0.1593749999999996,0.125],"name":"p4","children":[45,47]},{"translation":[0,-0.6937500000000003,0.34062499999999996],"name":"garra 3","children":[35,39,44,48]},{"translation":[0,-0.59375,-0.1499999999999999],"name":"garra 2","children":[29,49]},{"translation":[0,-0.828125,-0.23437499999999997],"name":"garra","children":[28,50]},{"translation":[0,0.3125,-0.0625],"name":"corpo","children":[8,27,51]},{"translation":[0,2.25,0.10625000000000004],"name":"BT-12","children":[52]},{"children":[1,3,5,7,53]}],"bufferViews":[{"buffer":0,"byteOffset":0,"byteLength":7920,"target":34962,"byteStride":12},{"buffer":0,"byteOffset":7920,"byteLength":7920,"target":34962,"byteStride":12},{"buffer":0,"byteOffset":15840,"byteLength":5280,"target":34962,"byteStride":8},{"buffer":0,"byteOffset":21120,"byteLength":1752,"target":34963},{"buffer":0,"byteOffset":22872,"byteLength":288,"target":34962,"byteStride":12},{"buffer":0,"byteOffset":23160,"byteLength":288,"target":34962,"byteStride":12},{"buffer":0,"byteOffset":23448,"byteLength":192,"target":34962,"byteStride":8},{"buffer":0,"byteOffset":23640,"byteLength":72,"target":34963},{"buffer":0,"byteOffset":23712,"byteLength":288,"target":34962,"byteStride":12},{"buffer":0,"byteOffset":24000,"byteLength":288,"target":34962,"byteStride":12},{"buffer":0,"byteOffset":24288,"byteLength":192,"target":34962,"byteStride":8},{"buffer":0,"byteOffset":24480,"byteLength":72,"target":34963},{"buffer":0,"byteOffset":24552,"byteLength":288,"target":34962,"byteStride":12},{"buffer":0,"byteOffset":24840,"byteLength":288,"target":34962,"byteStride":12},{"buffer":0,"byteOffset":25128,"byteLength":192,"target":34962,"byteStride":8},{"buffer":0,"byteOffset":25320,"byteLength":72,"target":34963},{"buffer":0,"byteOffset":25392,"byteLength":288,"target":34962,"byteStride":12},{"buffer":0,"byteOffset":25680,"byteLength":288,"target":34962,"byteStride":12},{"buffer":0,"byteOffset":25968,"byteLength":192,"target":34962,"byteStride":8},{"buffer":0,"byteOffset":26160,"byteLength":72,"target":34963},{"buffer":0,"byteOffset":26232,"byteLength":288,"target":34962,"byteStride":12},{"buffer":0,"byteOffset":26520,"byteLength":288,"target":34962,"byteStride":12},{"buffer":0,"byteOffset":26808,"byteLength":192,"target":34962,"byteStride":8},{"buffer":0,"byteOffset":27000,"byteLength":72,"target":34963},{"buffer":0,"byteOffset":27072,"byteLength":288,"target":34962,"byteStride":12},{"buffer":0,"byteOffset":27360,"byteLength":288,"target":34962,"byteStride":12},{"buffer":0,"byteOffset":27648,"byteLength":192,"target":34962,"byteStride":8},{"buffer":0,"byteOffset":27840,"byteLength":72,"target":34963},{"buffer":0,"byteOffset":27912,"byteLength":288,"target":34962,"byteStride":12},{"buffer":0,"byteOffset":28200,"byteLength":288,"target":34962,"byteStride":12},{"buffer":0,"byteOffset":28488,"byteLength":192,"target":34962,"byteStride":8},{"buffer":0,"byteOffset":28680,"byteLength":72,"target":34963},{"buffer":0,"byteOffset":28752,"byteLength":3552,"target":34962,"byteStride":12},{"buffer":0,"byteOffset":32304,"byteLength":3552,"target":34962,"byteStride":12},{"buffer":0,"byteOffset":35856,"byteLength":2368,"target":34962,"byteStride":8},{"buffer":0,"byteOffset":38224,"byteLength":744,"target":34963},{"buffer":0,"byteOffset":38968,"byteLength":4896,"target":34962,"byteStride":12},{"buffer":0,"byteOffset":43864,"byteLength":4896,"target":34962,"byteStride":12},{"buffer":0,"byteOffset":48760,"byteLength":3264,"target":34962,"byteStride":8},{"buffer":0,"byteOffset":52024,"byteLength":1008,"target":34963},{"buffer":0,"byteOffset":53032,"byteLength":288,"target":34962,"byteStride":12},{"buffer":0,"byteOffset":53320,"byteLength":288,"target":34962,"byteStride":12},{"buffer":0,"byteOffset":53608,"byteLength":192,"target":34962,"byteStride":8},{"buffer":0,"byteOffset":53800,"byteLength":72,"target":34963},{"buffer":0,"byteOffset":53872,"byteLength":504,"target":34962,"byteStride":12},{"buffer":0,"byteOffset":54376,"byteLength":504,"target":34962,"byteStride":12},{"buffer":0,"byteOffset":54880,"byteLength":336,"target":34962,"byteStride":8},{"buffer":0,"byteOffset":55216,"byteLength":120,"target":34963},{"buffer":0,"byteOffset":55336,"byteLength":288,"target":34962,"byteStride":12},{"buffer":0,"byteOffset":55624,"byteLength":288,"target":34962,"byteStride":12},{"buffer":0,"byteOffset":55912,"byteLength":192,"target":34962,"byteStride":8},{"buffer":0,"byteOffset":56104,"byteLength":72,"target":34963},{"buffer":0,"byteOffset":56176,"byteLength":504,"target":34962,"byteStride":12},{"buffer":0,"byteOffset":56680,"byteLength":504,"target":34962,"byteStride":12},{"buffer":0,"byteOffset":57184,"byteLength":336,"target":34962,"byteStride":8},{"buffer":0,"byteOffset":57520,"byteLength":120,"target":34963},{"buffer":0,"byteOffset":57640,"byteLength":288,"target":34962,"byteStride":12},{"buffer":0,"byteOffset":57928,"byteLength":288,"target":34962,"byteStride":12},{"buffer":0,"byteOffset":58216,"byteLength":192,"target":34962,"byteStride":8},{"buffer":0,"byteOffset":58408,"byteLength":72,"target":34963},{"buffer":0,"byteOffset":58480,"byteLength":504,"target":34962,"byteStride":12},{"buffer":0,"byteOffset":58984,"byteLength":504,"target":34962,"byteStride":12},{"buffer":0,"byteOffset":59488,"byteLength":336,"target":34962,"byteStride":8},{"buffer":0,"byteOffset":59824,"byteLength":120,"target":34963},{"buffer":0,"byteOffset":59944,"byteLength":288,"target":34962,"byteStride":12},{"buffer":0,"byteOffset":60232,"byteLength":288,"target":34962,"byteStride":12},{"buffer":0,"byteOffset":60520,"byteLength":192,"target":34962,"byteStride":8},{"buffer":0,"byteOffset":60712,"byteLength":72,"target":34963},{"buffer":0,"byteOffset":60784,"byteLength":504,"target":34962,"byteStride":12},{"buffer":0,"byteOffset":61288,"byteLength":504,"target":34962,"byteStride":12},{"buffer":0,"byteOffset":61792,"byteLength":336,"target":34962,"byteStride":8},{"buffer":0,"byteOffset":62128,"byteLength":120,"target":34963}],"buffers":[{"byteLength":62248,"uri":"data:application/octet-stream;base64,"}],"accessors":[{"bufferView":0,"componentType":5126,"count":660,"max":[1.71875,0.5184651613235474,0.6156623363494873],"min":[-0.21875,-1.2408257722854614,-0.9191938042640686],"type":"VEC3"},{"bufferView":1,"componentType":5126,"count":660,"max":[1,0.9995718002319336,0.999975323677063],"min":[-1,-1,-1],"type":"VEC3"},{"bufferView":2,"componentType":5126,"count":660,"max":[0.6328125,0.640625],"min":[0,0],"type":"VEC2"},{"bufferView":3,"componentType":5123,"count":876,"max":[659],"min":[0],"type":"SCALAR"},{"bufferView":4,"componentType":5126,"count":24,"max":[1.215256929397583,-0.2103455513715744,-1.5907762050628662],"min":[0.21634046733379364,-0.9307856559753418,-1.7809005975723267],"type":"VEC3"},{"bufferView":5,"componentType":5126,"count":24,"max":[0.48277440667152405,0.28353938460350037,-0.8538917899131775],"min":[-0.28988489508628845,-0.17283739149570465,-0.9802095890045166],"type":"VEC3"},{"bufferView":6,"componentType":5126,"count":24,"max":[0.261067658662796,0.1875],"min":[0,0.002699136734008789],"type":"VEC2"},{"bufferView":7,"componentType":5123,"count":36,"max":[23],"min":[0],"type":"SCALAR"},{"bufferView":8,"componentType":5126,"count":24,"max":[1.215256929397583,-0.2103455513715744,-1.5907762050628662],"min":[0.21634046733379364,-0.9307856559753418,-1.7809005975723267],"type":"VEC3"},{"bufferView":9,"componentType":5126,"count":24,"max":[0.48277440667152405,0.28353938460350037,-0.8538917899131775],"min":[-0.28988489508628845,-0.17283739149570465,-0.9802095890045166],"type":"VEC3"},{"bufferView":10,"componentType":5126,"count":24,"max":[0.261067658662796,0.375],"min":[0,0.1901991367340088],"type":"VEC2"},{"bufferView":11,"componentType":5123,"count":36,"max":[23],"min":[0],"type":"SCALAR"},{"bufferView":12,"componentType":5126,"count":24,"max":[1.215256929397583,-0.2103455513715744,-1.5907762050628662],"min":[0.21634046733379364,-0.9307856559753418,-1.7809005975723267],"type":"VEC3"},{"bufferView":13,"componentType":5126,"count":24,"max":[0.48277440667152405,0.28353938460350037,-0.8538917899131775],"min":[-0.28988489508628845,-0.17283739149570465,-0.9802095890045166],"type":"VEC3"},{"bufferView":14,"componentType":5126,"count":24,"max":[0.5266926884651184,0.1875],"min":[0.265625,0.002699136734008789],"type":"VEC2"},{"bufferView":15,"componentType":5123,"count":36,"max":[23],"min":[0],"type":"SCALAR"},{"bufferView":16,"componentType":5126,"count":24,"max":[1.215256929397583,-0.2103455513715744,-1.5907762050628662],"min":[0.21634046733379364,-0.9307856559753418,-1.7809005975723267],"type":"VEC3"},{"bufferView":17,"componentType":5126,"count":24,"max":[0.48277440667152405,0.28353938460350037,-0.8538917899131775],"min":[-0.28988489508628845,-0.17283739149570465,-0.9802095890045166],"type":"VEC3"},{"bufferView":18,"componentType":5126,"count":24,"max":[0.5266926884651184,0.375],"min":[0.265625,0.1901991367340088],"type":"VEC2"},{"bufferView":19,"componentType":5123,"count":36,"max":[23],"min":[0],"type":"SCALAR"},{"bufferView":20,"componentType":5126,"count":24,"max":[1.215256929397583,-0.2103455513715744,-1.5907762050628662],"min":[0.21634046733379364,-0.9307856559753418,-1.7809005975723267],"type":"VEC3"},{"bufferView":21,"componentType":5126,"count":24,"max":[0.48277440667152405,0.28353938460350037,-0.8538917899131775],"min":[-0.28988489508628845,-0.17283739149570465,-0.9802095890045166],"type":"VEC3"},{"bufferView":22,"componentType":5126,"count":24,"max":[0.261067658662796,0.5625],"min":[0,0.3776991367340088],"type":"VEC2"},{"bufferView":23,"componentType":5123,"count":36,"max":[23],"min":[0],"type":"SCALAR"},{"bufferView":24,"componentType":5126,"count":24,"max":[1.215256929397583,-0.2103455513715744,-1.5907762050628662],"min":[0.21634046733379364,-0.9307856559753418,-1.7809005975723267],"type":"VEC3"},{"bufferView":25,"componentType":5126,"count":24,"max":[0.48277440667152405,0.28353938460350037,-0.8538917899131775],"min":[-0.28988489508628845,-0.17283739149570465,-0.9802095890045166],"type":"VEC3"},{"bufferView":26,"componentType":5126,"count":24,"max":[0.5266926884651184,0.5625],"min":[0.265625,0.3776991367340088],"type":"VEC2"},{"bufferView":27,"componentType":5123,"count":36,"max":[23],"min":[0],"type":"SCALAR"},{"bufferView":28,"componentType":5126,"count":24,"max":[1.215256929397583,-0.2103455513715744,-1.5907762050628662],"min":[0.21634046733379364,-0.9307856559753418,-1.7809005975723267],"type":"VEC3"},{"bufferView":29,"componentType":5126,"count":24,"max":[0.48277440667152405,0.28353938460350037,-0.8538917899131775],"min":[-0.28988489508628845,-0.17283739149570465,-0.9802095890045166],"type":"VEC3"},{"bufferView":30,"componentType":5126,"count":24,"max":[0.7923176884651184,0.1875],"min":[0.53125,0.002699136734008789],"type":"VEC2"},{"bufferView":31,"componentType":5123,"count":36,"max":[23],"min":[0],"type":"SCALAR"},{"bufferView":32,"componentType":5126,"count":296,"max":[0.11874999850988388,0.6132884621620178,0.09593381732702255],"min":[-0.11874999850988388,-0.18506832420825958,-0.1340772807598114],"type":"VEC3"},{"bufferView":33,"componentType":5126,"count":296,"max":[1,1,1],"min":[-1,-1,-1],"type":"VEC3"},{"bufferView":34,"componentType":5126,"count":296,"max":[0.616406261920929,0.6171875],"min":[0.06584814190864563,0],"type":"VEC2"},{"bufferView":35,"componentType":5123,"count":372,"max":[295],"min":[0],"type":"SCALAR"},{"bufferView":36,"componentType":5126,"count":408,"max":[0.6139639616012573,0.44062501192092896,0.15028473734855652],"min":[-0.5028859376907349,0.05937499925494194,-0.24283480644226074],"type":"VEC3"},{"bufferView":37,"componentType":5126,"count":408,"max":[0.9601112008094788,1,1],"min":[-1,-1,-1],"type":"VEC3"},{"bufferView":38,"componentType":5126,"count":408,"max":[0.6539902091026306,0.6548656225204468],"min":[0,0],"type":"VEC2"},{"bufferView":39,"componentType":5123,"count":504,"max":[407],"min":[0],"type":"SCALAR"},{"bufferView":40,"componentType":5126,"count":24,"max":[0.2906250059604645,0.23125000298023224,0.046875],"min":[0.02187499962747097,0,-0.046875],"type":"VEC3"},{"bufferView":41,"componentType":5126,"count":24,"max":[0.7870559096336365,1,1],"min":[-0.7870559096336365,-1,-1],"type":"VEC3"},{"bufferView":42,"componentType":5126,"count":24,"max":[0.29517459869384766,0.2465991973876953],"min":[0,0],"type":"VEC2"},{"bufferView":43,"componentType":5123,"count":36,"max":[23],"min":[0],"type":"SCALAR"},{"bufferView":44,"componentType":5126,"count":42,"max":[0.12589532136917114,0.26667070388793945,0.046875],"min":[-0.0224111657589674,0,-0.046875],"type":"VEC3"},{"bufferView":45,"componentType":5126,"count":42,"max":[0.9774855375289917,0.9659258127212524,1],"min":[-0.9851716160774231,-0.9719180464744568,-1],"type":"VEC3"},{"bufferView":46,"componentType":5126,"count":42,"max":[0.6373360753059387,0.6390377283096313],"min":[0,0.015625],"type":"VEC2"},{"bufferView":47,"componentType":5123,"count":60,"max":[41],"min":[0],"type":"SCALAR"},{"bufferView":48,"componentType":5126,"count":24,"max":[-0.02187499962747097,0.23125000298023224,0.046875],"min":[-0.2906250059604645,0,-0.046875],"type":"VEC3"},{"bufferView":49,"componentType":5126,"count":24,"max":[0.7870559096336365,1,1],"min":[-0.7870559096336365,-1,-1],"type":"VEC3"},{"bufferView":50,"componentType":5126,"count":24,"max":[0.59375,0.6215991973876953],"min":[0.1328125,0.1015625],"type":"VEC2"},{"bufferView":51,"componentType":5123,"count":36,"max":[23],"min":[0],"type":"SCALAR"},{"bufferView":52,"componentType":5126,"count":42,"max":[0.0224111657589674,0.26667070388793945,0.046875],"min":[-0.12589532136917114,0,-0.046875],"type":"VEC3"},{"bufferView":53,"componentType":5126,"count":42,"max":[0.9851716160774231,0.9659258127212524,1],"min":[-0.9774855375289917,-0.9719180464744568,-1],"type":"VEC3"},{"bufferView":54,"componentType":5126,"count":42,"max":[0.6398313641548157,0.6390377283096313],"min":[0,0.1484375],"type":"VEC2"},{"bufferView":55,"componentType":5123,"count":60,"max":[41],"min":[0],"type":"SCALAR"},{"bufferView":56,"componentType":5126,"count":24,"max":[0.2906250059604645,0.23125000298023224,0.046875],"min":[0.02187499962747097,0,-0.046875],"type":"VEC3"},{"bufferView":57,"componentType":5126,"count":24,"max":[0.7870559096336365,1,1],"min":[-0.7870559096336365,-1,-1],"type":"VEC3"},{"bufferView":58,"componentType":5126,"count":24,"max":[0.625,0.6450366973876953],"min":[0.0859375,0.28125],"type":"VEC2"},{"bufferView":59,"componentType":5123,"count":36,"max":[23],"min":[0],"type":"SCALAR"},{"bufferView":60,"componentType":5126,"count":42,"max":[0.12589532136917114,0.26667070388793945,0.046875],"min":[-0.0224111657589674,0,-0.046875],"type":"VEC3"},{"bufferView":61,"componentType":5126,"count":42,"max":[0.9774855375289917,0.9659258127212524,1],"min":[-0.9851716160774231,-0.9719180464744568,-1],"type":"VEC3"},{"bufferView":62,"componentType":5126,"count":42,"max":[0.6373360753059387,0.6390377283096313],"min":[0,0],"type":"VEC2"},{"bufferView":63,"componentType":5123,"count":60,"max":[41],"min":[0],"type":"SCALAR"},{"bufferView":64,"componentType":5126,"count":24,"max":[0.2906250059604645,0.23125000298023224,0.046875],"min":[0.02187499962747097,0,-0.046875],"type":"VEC3"},{"bufferView":65,"componentType":5126,"count":24,"max":[0.7870559096336365,1,1],"min":[-0.7870559096336365,-1,-1],"type":"VEC3"},{"bufferView":66,"componentType":5126,"count":24,"max":[0.6328125,0.6450366973876953],"min":[0.1171875,0.2265625],"type":"VEC2"},{"bufferView":67,"componentType":5123,"count":36,"max":[23],"min":[0],"type":"SCALAR"},{"bufferView":68,"componentType":5126,"count":42,"max":[0.12589532136917114,0.26667070388793945,0.046875],"min":[-0.0224111657589674,0,-0.046875],"type":"VEC3"},{"bufferView":69,"componentType":5126,"count":42,"max":[0.9774855375289917,0.9659258127212524,1],"min":[-0.9851716160774231,-0.9719180464744568,-1],"type":"VEC3"},{"bufferView":70,"componentType":5126,"count":42,"max":[0.6398313641548157,0.6390377283096313],"min":[0,0],"type":"VEC2"},{"bufferView":71,"componentType":5123,"count":60,"max":[41],"min":[0],"type":"SCALAR"}],"materials":[{"pbrMetallicRoughness":{"metallicFactor":0,"roughnessFactor":1,"baseColorTexture":{"index":0}},"alphaMode":"MASK","alphaCutoff":0.05,"doubleSided":true},{"pbrMetallicRoughness":{"metallicFactor":0,"roughnessFactor":1,"baseColorTexture":{"index":1}},"alphaMode":"MASK","alphaCutoff":0.05,"doubleSided":true}],"textures":[{"sampler":0,"source":0,"name":"textureBT12"},{"sampler":1,"source":1,"name":"textura das reacoes BT-12"}],"samplers":[{"magFilter":9728,"minFilter":9728,"wrapS":33071,"wrapT":33071},{"magFilter":9728,"minFilter":9728,"wrapS":33071,"wrapT":33071}],"images":[{"mimeType":"image/png","uri":"data:image/png;base64,"},{"mimeType":"image/png","uri":"data:image/png;base64,"}],"meshes":[{"primitives":[{"mode":4,"attributes":{"POSITION":0,"NORMAL":1,"TEXCOORD_0":2},"indices":3,"material":0}]},{"primitives":[{"mode":4,"attributes":{"POSITION":4,"NORMAL":5,"TEXCOORD_0":6},"indices":7,"material":1}]},{"primitives":[{"mode":4,"attributes":{"POSITION":8,"NORMAL":9,"TEXCOORD_0":10},"indices":11,"material":1}]},{"primitives":[{"mode":4,"attributes":{"POSITION":12,"NORMAL":13,"TEXCOORD_0":14},"indices":15,"material":1}]},{"primitives":[{"mode":4,"attributes":{"POSITION":16,"NORMAL":17,"TEXCOORD_0":18},"indices":19,"material":1}]},{"primitives":[{"mode":4,"attributes":{"POSITION":20,"NORMAL":21,"TEXCOORD_0":22},"indices":23,"material":1}]},{"primitives":[{"mode":4,"attributes":{"POSITION":24,"NORMAL":25,"TEXCOORD_0":26},"indices":27,"material":1}]},{"primitives":[{"mode":4,"attributes":{"POSITION":28,"NORMAL":29,"TEXCOORD_0":30},"indices":31,"material":1}]},{"primitives":[{"mode":4,"attributes":{"POSITION":32,"NORMAL":33,"TEXCOORD_0":34},"indices":35,"material":0}]},{"primitives":[{"mode":4,"attributes":{"POSITION":36,"NORMAL":37,"TEXCOORD_0":38},"indices":39,"material":0}]},{"primitives":[{"mode":4,"attributes":{"POSITION":40,"NORMAL":41,"TEXCOORD_0":42},"indices":43,"material":0}]},{"primitives":[{"mode":4,"attributes":{"POSITION":44,"NORMAL":45,"TEXCOORD_0":46},"indices":47,"material":0}]},{"primitives":[{"mode":4,"attributes":{"POSITION":48,"NORMAL":49,"TEXCOORD_0":50},"indices":51,"material":0}]},{"primitives":[{"mode":4,"attributes":{"POSITION":52,"NORMAL":53,"TEXCOORD_0":54},"indices":55,"material":0}]},{"primitives":[{"mode":4,"attributes":{"POSITION":56,"NORMAL":57,"TEXCOORD_0":58},"indices":59,"material":0}]},{"primitives":[{"mode":4,"attributes":{"POSITION":60,"NORMAL":61,"TEXCOORD_0":62},"indices":63,"material":0}]},{"primitives":[{"mode":4,"attributes":{"POSITION":64,"NORMAL":65,"TEXCOORD_0":66},"indices":67,"material":0}]},{"primitives":[{"mode":4,"attributes":{"POSITION":68,"NORMAL":69,"TEXCOORD_0":70},"indices":71,"material":0}]}]}